<svg xmlns="http://www.w3.org/2000/svg" viewBox="0 0 854.09 715.8"><defs><style>.cls-1,.cls-11,.cls-12,.cls-14,.cls-17,.cls-2,.cls-4,.cls-5,.cls-6,.cls-7,.cls-8,.cls-9{fill:none;}.cls-1,.cls-14,.cls-4,.cls-6,.cls-7,.cls-8,.cls-9{stroke:#f15a24;}.cls-1{stroke-miterlimit:10;}.cls-1,.cls-2{stroke-width:6.34px;}.cls-10,.cls-11,.cls-12,.cls-13,.cls-15,.cls-16,.cls-17,.cls-2,.cls-3,.cls-5{stroke:#1b1464;}.cls-10,.cls-11,.cls-12,.cls-13,.cls-14,.cls-15,.cls-16,.cls-17,.cls-2,.cls-3,.cls-4,.cls-5{stroke-linecap:round;}.cls-10,.cls-11,.cls-12,.cls-13,.cls-14,.cls-15,.cls-16,.cls-17,.cls-2,.cls-3,.cls-4,.cls-5,.cls-6,.cls-7,.cls-8,.cls-9{stroke-linejoin:round;}.cls-13,.cls-15,.cls-3{fill:#f15a24;}.cls-3{stroke-width:1.9px;}.cls-4{stroke-width:8.24px;}.cls-5{stroke-width:3.8px;}.cls-6{stroke-width:7.6px;}.cls-7{stroke-width:7.1px;}.cls-8{stroke-width:6.45px;}.cls-9{stroke-width:5.73px;}.cls-10,.cls-16{fill:#1b1464;}.cls-10,.cls-14{stroke-width:10px;}.cls-11{stroke-width:9.62px;}.cls-12{stroke-width:9.62px;}.cls-13,.cls-17{stroke-width:7.73px;}.cls-15{stroke-width:3.8px;}.cls-16{stroke-width:7.47px;}</style></defs><g id="Layer_2" data-name="Layer 2"><g id="Layer_1-2" data-name="Layer 1"><path class="cls-1" d="M511.25,334.73c-.1-6.63-.61-26.18-11.65-45.14-15.37-26.41-46.3-43.32-78-43-30.72.27-51.61,16.61-57.43,21.51l-1.81,1.55c-23.2,20.46-27.55,48.39-28.44,55.56-.95,7.66-3,23.81,4.37,41.09,5.33,12.58,14.42,22.78,25.07,35,11.44,13.06,14.89,14.45,18,22.48,5.19,13.59-.46,20.58,5.34,26.86,4.58,5,10.34,3,34.78,2.91,27-.11,33.86,2.19,38.18-3.23,5-6.24-1.32-13.28,3.56-26.05,2.53-6.63,5.95-9.22,13.27-17C488,395,500,382.28,506.23,366.92,511.54,353.94,511.37,342.53,511.25,334.73Zm-66.82,4.15a21.44,21.44,0,1,1,.06-1.51C444.49,337.88,444.47,338.38,444.43,338.88Z"/><path class="cls-2" d="M410.78,405.43s7.45,23.29,5.67,38.34"/><path class="cls-2" d="M434.46,405.43s-7.44,23.29-5.66,38.34"/><path class="cls-2" d="M423.19,305.66q-.36-7.82-.7-15.64a17.68,17.68,0,0,0-6.74-8.73,17.86,17.86,0,0,0-7.5-2.7,18.77,18.77,0,0,0-11.06,1.35c-3.94,2-3.77,4.16-7.6,7.71-6.52,6.06-12,3.67-15.53,8.25-2.26,2.94-4.23,8.23-1.73,18.5-7.05,3.91-11.8,10.6-12,17.47-.15,6.32,3.57,12.17,4.8,14.1a8.23,8.23,0,0,0,1.18,1.5c2.73,2.75,6.76,2.89,8.91,2.78a20.55,20.55,0,0,0-3.75,9.13c-.29,2-1.2,8.24,3,13.69,4.63,6.06,11.91,6.44,13,6.47.07,1.35.53,7.31,5.32,11.33,3.91,3.29,8.49,3.38,11.51,3.45a19.52,19.52,0,0,0,9.52-1.83c5.32-2.67,9.35-8.31,9.35-8.31q-.21-8.31-.43-16.61"/><path class="cls-2" d="M392.83,367.57s-6.69,8.4-5.4,12"/><line class="cls-2" x1="375.25" y1="350.25" x2="385.95" y2="347.91"/><path class="cls-2" d="M372.33,314.4s10.41,3.88,12.57,2.7"/><path class="cls-2" d="M389.59,287.65s13.27,6.8,12.84,11.65"/><circle class="cls-3" cx="410.66" cy="293.6" r="3.72"/><circle class="cls-3" cx="388.34" cy="306.01" r="3.72"/><circle class="cls-3" cx="376.85" cy="332.14" r="3.72"/><circle class="cls-3" cx="382.63" cy="361.26" r="3.72"/><circle class="cls-3" cx="405.36" cy="376.63" r="3.72"/><line class="cls-4" x1="524.03" y1="378.65" x2="548.05" y2="389.09"/><line class="cls-4" x1="532.23" y1="337.34" x2="558.42" y2="337.4"/><line class="cls-4" x1="525.03" y1="294.97" x2="549.17" y2="284.78"/><line class="cls-4" x1="501.73" y1="258.65" x2="520.85" y2="240.75"/><line class="cls-4" x1="466.01" y1="232.8" x2="476.45" y2="208.78"/><line class="cls-4" x1="423.42" y1="225.33" x2="422.96" y2="199.15"/><line class="cls-4" x1="379.84" y1="232.3" x2="369.94" y2="208.05"/><line class="cls-4" x1="344.29" y1="257.93" x2="325.81" y2="239.37"/><line class="cls-4" x1="320.12" y1="294.98" x2="296.1" y2="284.55"/><line class="cls-4" x1="311.88" y1="337.01" x2="285.7" y2="337.88"/><line class="cls-4" x1="319.28" y1="379.54" x2="295.47" y2="390.45"/><polyline class="cls-5" points="444.43 338.89 459.37 334.03 461.53 344.19 472.6 340.52"/><polyline class="cls-5" points="460.61 306.72 446.11 312.76 451.09 321.88 440.3 326.3"/><polyline class="cls-5" points="443.17 293.14 438.54 308.15 428.98 304.06 425.62 315.23"/><polyline class="cls-5" points="441.7 348.62 452.96 359.58 459.39 351.41 467.69 359.6"/><polyline class="cls-5" points="431.88 357.19 437 371.95 450.23 368.66 451.52 382.79"/><line class="cls-6" x1="386.36" y1="469.82" x2="458.51" y2="469.82"/><line class="cls-7" x1="391.77" y1="485.69" x2="454.7" y2="485.69"/><line class="cls-8" x1="396.62" y1="501.97" x2="448.6" y2="501.97"/><line class="cls-9" x1="402.25" y1="517.78" x2="443.17" y2="517.78"/><rect class="cls-10" x="5" y="568.34" width="844.09" height="142.47" rx="71.23"/><path class="cls-11" d="M471,58.75c186.3,24.14,330.64,194,330.64,399.94A429.83,429.83,0,0,1,789,562.21h0"/><path class="cls-12" d="M61.61,562.85a430.4,430.4,0,0,1-12.7-104.16c0-204.45,142.26-373.33,326.58-399.39"/><path class="cls-13" d="M444.66,337.89c0,.51,0,1-.06,1.51a21.44,21.44,0,1,1,.06-1.51Z"/><path class="cls-14" d="M594.28,154.69S708.66,242.57,723,328.42"/><path class="cls-14" d="M93.43,417s-14.56,89.27,0,128.33"/><path class="cls-15" d="M452.43,286.74a6.86,6.86,0,1,1-6.86-6.86A6.86,6.86,0,0,1,452.43,286.74Z"/><path class="cls-15" d="M473.86,304.17a6.86,6.86,0,1,1-6.85-6.86A6.84,6.84,0,0,1,473.86,304.17Z"/><path class="cls-15" d="M485.52,337.34a6.86,6.86,0,1,1-6.86-6.86A6.86,6.86,0,0,1,485.52,337.34Z"/><path class="cls-15" d="M479.72,364a6.86,6.86,0,1,1-6.85-6.85A6.86,6.86,0,0,1,479.72,364Z"/><path class="cls-15" d="M459.34,389.64a6.86,6.86,0,1,1-6.86-6.85A6.86,6.86,0,0,1,459.34,389.64Z"/><path class="cls-16" d="M386.64,154.44q-4.51-47.56-9-95.14Q375,31.52,372.33,3.73H471q-2.16,27.51-4.3,55-3.76,48-7.51,95.94"/><path class="cls-17" d="M423.59,151.17c-106.89,0-193.53,86.65-193.53,193.53S316.7,538.23,423.59,538.23,617.12,451.59,617.12,344.7,530.47,151.17,423.59,151.17ZM401.08,337.88a21.79,21.79,0,0,1,43.58,0c0,.51,0,1-.06,1.51a21.79,21.79,0,0,1-43.52-1.51Z"/></g></g></svg>